<svg width="16" height="16" viewBox="0 0 16 16" fill="none" xmlns="http://www.w3.org/2000/svg">
<path fill-rule="evenodd" clip-rule="evenodd" d="M8.69574 10.6723C9.10208 10.8672 9.55743 10.9764 10.0383 10.9764C10.3919 10.9764 10.7318 10.9173 11.0484 10.8086C11.2384 10.7433 11.4201 10.6602 11.5914 10.5612L13.1437 10.9764L12.7277 9.4266C12.9923 8.97019 13.1437 8.44019 13.1437 7.87486C13.1437 6.16194 11.7534 4.77335 10.0383 4.77335C9.55743 4.77335 9.10208 4.88252 8.69574 5.07739C8.8261 5.13991 8.95141 5.21125 9.07091 5.29063C9.90736 5.84633 10.4586 6.7963 10.4586 7.87486C10.4586 9.10749 9.73861 10.1722 8.69574 10.6723Z" fill="#5BB2FF"/>
<path d="M7.53569 4.53043C7.0521 4.29806 6.51043 4.16818 5.94014 4.16818C3.90212 4.16818 2.25067 5.82133 2.25067 7.85973C2.25067 8.4389 2.3844 8.98819 2.6229 9.47714L2 11.802L4.32421 11.1791C4.81271 11.4176 5.3615 11.5513 5.94014 11.5513C6.51043 11.5513 7.0521 11.4214 7.53569 11.189L7.95427 10.9879L8.43405 11.218C8.92033 11.4512 9.46495 11.5815 10.0383 11.5815C10.6207 11.5815 11.1731 11.447 11.6647 11.2072L14 11.8318L13.374 9.49998C13.6142 9.0088 13.7489 8.45687 13.7489 7.87486C13.7489 5.82699 12.0869 4.16818 10.0383 4.16818C9.46495 4.16818 8.92033 4.29852 8.43405 4.53173L7.98578 4.74671L7.53569 4.53043ZM7.53569 5.62136L7.98269 5.40658L8.43405 5.62305C9.27526 6.02647 9.85343 6.88406 9.85343 7.87486C9.85343 8.86565 9.27526 9.72324 8.43405 10.1267L8.0142 10.328L7.53569 10.0981C6.7018 9.6974 6.1279 8.84515 6.1279 7.85973C6.1279 6.8743 6.7018 6.02206 7.53569 5.62136ZM2.85584 7.85973C2.85584 6.15517 4.23673 4.77336 5.94014 4.77335C6.41776 4.77335 6.87002 4.88199 7.27359 5.07591C6.23781 5.57361 5.52273 6.6331 5.52273 7.85973C5.52273 9.08635 6.23781 10.1458 7.27359 10.6435C6.87002 10.8375 6.41776 10.9461 5.94014 10.9461C5.37819 10.9461 4.85133 10.7957 4.39758 10.533L2.85584 10.9461L3.26903 9.40392C3.00624 8.94973 2.85584 8.4223 2.85584 7.85973ZM8.69574 10.6723C9.10208 10.8672 9.55743 10.9764 10.0383 10.9764C10.3919 10.9764 10.7318 10.9173 11.0484 10.8086C11.2384 10.7433 11.4201 10.6602 11.5914 10.5612L13.1437 10.9764L12.7277 9.4266C12.9923 8.97019 13.1437 8.44019 13.1437 7.87486C13.1437 6.16194 11.7534 4.77335 10.0383 4.77335C9.55743 4.77335 9.10208 4.88252 8.69574 5.07739C8.8261 5.13991 8.95141 5.21125 9.07091 5.29063C9.90736 5.84633 10.4586 6.7963 10.4586 7.87486C10.4586 9.10749 9.73861 10.1722 8.69574 10.6723Z" fill="#5BB2FF"/>
<path fill-rule="evenodd" clip-rule="evenodd" d="M7.98269 5.40658L7.53569 5.62136C6.7018 6.02206 6.1279 6.8743 6.1279 7.85973C6.1279 8.84515 6.7018 9.6974 7.53569 10.0981L8.0142 10.328L8.43405 10.1267C9.27526 9.72324 9.85343 8.86565 9.85343 7.87486C9.85343 6.88406 9.27526 6.02647 8.43405 5.62305L7.98269 5.40658Z" fill="#EDF8FF"/>
<path fill-rule="evenodd" clip-rule="evenodd" d="M8.69574 10.6723C9.10208 10.8672 9.55743 10.9764 10.0383 10.9764C10.3919 10.9764 10.7318 10.9173 11.0484 10.8086C11.2384 10.7433 11.4201 10.6602 11.5914 10.5612L13.1437 10.9764L12.7277 9.4266C12.9923 8.97019 13.1437 8.44019 13.1437 7.87486C13.1437 6.16194 11.7534 4.77335 10.0383 4.77335C9.55743 4.77335 9.10208 4.88252 8.69574 5.07739C8.8261 5.13991 8.95141 5.21125 9.07091 5.29063C9.90736 5.84633 10.4586 6.7963 10.4586 7.87486C10.4586 9.10749 9.73861 10.1722 8.69574 10.6723Z" fill="#EDF8FF"/>
<path fill-rule="evenodd" clip-rule="evenodd" d="M5.94014 10.9461C6.41776 10.9461 6.87002 10.8375 7.27359 10.6435C6.23781 10.1458 5.52273 9.08635 5.52273 7.85973C5.52273 6.6331 6.23781 5.57361 7.27359 5.07591C6.87002 4.88199 6.41776 4.77335 5.94014 4.77335C4.23673 4.77336 2.85584 6.15517 2.85584 7.85973C2.85584 8.4223 3.00624 8.94973 3.26903 9.40392L2.85584 10.9461L4.39758 10.533C4.85133 10.7957 5.37819 10.9461 5.94014 10.9461Z" fill="#EDF8FF"/>
</svg>
